<svg xmlns="http://www.w3.org/2000/svg" viewBox="0 0 1200 800" role="img" aria-labelledby="title desc">
  <title id="title">Neon swan</title>
  <desc id="desc">A cyan neon swan outline over dark water.</desc>
  <defs>
    <linearGradient id="bg" x1="0" y1="0" x2="0" y2="1">
      <stop offset="0%" stop-color="#020409" />
      <stop offset="100%" stop-color="#000000" />
    </linearGradient>
    <linearGradient id="glowStroke" x1="0" y1="0" x2="1" y2="1">
      <stop offset="0%" stop-color="#d9ffff" />
      <stop offset="45%" stop-color="#86f7ff" />
      <stop offset="100%" stop-color="#3ad8ff" />
    </linearGradient>
    <filter id="outerGlow" x="-50%" y="-50%" width="200%" height="200%">
      <feGaussianBlur stdDeviation="8" result="blur1" />
      <feColorMatrix
        in="blur1"
        type="matrix"
        values="1 0 0 0 0
                0 1 0 0 0.9
                0 0 1 0 1
                0 0 0 1 0"
        result="glow1"
      />
      <feGaussianBlur in="glow1" stdDeviation="18" result="blur2" />
      <feMerge>
        <feMergeNode in="blur2" />
        <feMergeNode in="glow1" />
        <feMergeNode in="SourceGraphic" />
      </feMerge>
    </filter>
    <filter id="softGlow" x="-50%" y="-50%" width="200%" height="200%">
      <feGaussianBlur stdDeviation="6" />
    </filter>
  </defs>

  <rect width="1200" height="800" fill="url(#bg)" />

  <g opacity="0.35" filter="url(#softGlow)" stroke="#59ecff" stroke-linecap="round" fill="none">
    <path d="M180 575 C320 575, 420 570, 560 575 S835 582, 1020 575" stroke-width="5" />
    <path d="M240 605 C325 610, 415 610, 505 605" stroke-width="4" />
    <path d="M720 606 C790 610, 860 610, 930 605" stroke-width="4" />
    <path d="M290 635 C345 640, 390 640, 450 636" stroke-width="3" />
    <path d="M760 636 C815 640, 870 640, 930 636" stroke-width="3" />
  </g>

  <g filter="url(#outerGlow)" fill="none" stroke="url(#glowStroke)" stroke-linecap="round" stroke-linejoin="round">
    <path
      d="M310 520
         L390 475
         L348 446
         L420 466
         L382 424
         L474 454
         L560 508
         L620 512
         L699 512
         L742 470
         L705 373
         L687 325
         L708 281
         L764 240
         L815 253
         L853 281
         L822 289
         L854 304
         L804 314
         L782 350
         L780 405
         L822 517
         L787 555
         L588 555
         L525 544
         L440 535
         Z"
      stroke-width="6"
    />
    <path
      d="M775 350
         C766 430, 729 484, 690 522"
      stroke-width="4"
      opacity="0.8"
    />
    <path
      d="M510 540
         C595 565, 685 567, 780 545"
      stroke-width="4"
      opacity="0.9"
    />
  </g>

  <g opacity="0.24" transform="translate(0 108) scale(1 -0.42)" filter="url(#softGlow)" fill="none" stroke="#54e6ff" stroke-linecap="round" stroke-linejoin="round">
    <path
      d="M310 520
         L390 475
         L348 446
         L420 466
         L382 424
         L474 454
         L560 508
         L620 512
         L699 512
         L742 470
         L705 373
         L687 325
         L708 281
         L764 240
         L815 253
         L853 281
         L822 289
         L854 304
         L804 314
         L782 350
         L780 405
         L822 517
         L787 555
         L588 555
         L525 544
         L440 535
         Z"
      stroke-width="7"
    />
  </g>

  <g filter="url(#softGlow)" opacity="0.65">
    <ellipse cx="610" cy="566" rx="300" ry="16" fill="#4be2ff" />
    <ellipse cx="610" cy="566" rx="210" ry="6" fill="#d8ffff" />
  </g>
</svg>
