<svg width="1200" height="630" viewBox="0 0 1200 630" fill="none" xmlns="http://www.w3.org/2000/svg">
  <defs>
    <linearGradient id="bg" x1="96" y1="62" x2="1098" y2="592" gradientUnits="userSpaceOnUse">
      <stop stop-color="#0F172A"/>
      <stop offset="0.45" stop-color="#4C1D95"/>
      <stop offset="1" stop-color="#111827"/>
    </linearGradient>
    <linearGradient id="card" x1="240" y1="86" x2="784" y2="560" gradientUnits="userSpaceOnUse">
      <stop stop-color="#FFF8EF"/>
      <stop offset="1" stop-color="#F3E8FF"/>
    </linearGradient>
    <linearGradient id="accent" x1="0" y1="0" x2="1" y2="1">
      <stop stop-color="#A78BFA"/>
      <stop offset="1" stop-color="#F472B6"/>
    </linearGradient>
    <filter id="shadow" x="141" y="57" width="935" height="526" filterUnits="userSpaceOnUse" color-interpolation-filters="sRGB">
      <feFlood flood-opacity="0" result="BackgroundImageFix"/>
      <feColorMatrix in="SourceAlpha" type="matrix" values="0 0 0 0 0 0 0 0 0 0 0 0 0 0 0 0 0 0 127 0" result="hardAlpha"/>
      <feOffset dx="0" dy="18"/>
      <feGaussianBlur stdDeviation="24"/>
      <feColorMatrix type="matrix" values="0 0 0 0 0.0588235 0 0 0 0 0.0941176 0 0 0 0 0.223529 0 0 0 0.28 0"/>
      <feBlend mode="normal" in2="BackgroundImageFix" result="effect1_dropShadow_1_1"/>
      <feBlend mode="normal" in="SourceGraphic" in2="effect1_dropShadow_1_1" result="shape"/>
    </filter>
  </defs>

  <rect width="1200" height="630" rx="32" fill="url(#bg)"/>
  <circle cx="1096" cy="102" r="158" fill="#C084FC" opacity="0.14"/>
  <circle cx="134" cy="561" r="188" fill="#60A5FA" opacity="0.12"/>
  <circle cx="946" cy="504" r="116" fill="#F472B6" opacity="0.12"/>

  <g opacity="0.16">
    <path d="M129 144H399" stroke="#F8FAFC" stroke-width="2"/>
    <path d="M129 180H314" stroke="#F8FAFC" stroke-width="2"/>
    <path d="M129 216H362" stroke="#F8FAFC" stroke-width="2"/>
    <path d="M903 118H1051" stroke="#F8FAFC" stroke-width="2"/>
    <path d="M903 154H1080" stroke="#F8FAFC" stroke-width="2"/>
    <path d="M870 515H1065" stroke="#F8FAFC" stroke-width="2"/>
    <path d="M870 551H1016" stroke="#F8FAFC" stroke-width="2"/>
  </g>

  <g filter="url(#shadow)">
    <rect x="189" y="105" width="548" height="430" rx="28" fill="url(#card)"/>
    <rect x="222" y="140" width="484" height="72" rx="16" fill="#B91C1C"/>
    <rect x="254" y="164" width="196" height="24" rx="12" fill="#FEE2E2" opacity="0.92"/>
    <rect x="254" y="240" width="420" height="28" rx="14" fill="#111827" opacity="0.88"/>
    <rect x="254" y="286" width="366" height="18" rx="9" fill="#475569" opacity="0.52"/>
    <rect x="254" y="318" width="334" height="18" rx="9" fill="#475569" opacity="0.42"/>

    <rect x="254" y="370" width="182" height="120" rx="18" fill="#FFFFFF" opacity="0.96"/>
    <rect x="274" y="392" width="88" height="12" rx="6" fill="#7C3AED" opacity="0.8"/>
    <rect x="274" y="420" width="138" height="12" rx="6" fill="#CBD5E1"/>
    <rect x="274" y="444" width="114" height="12" rx="6" fill="#CBD5E1" opacity="0.8"/>
    <rect x="274" y="468" width="128" height="12" rx="6" fill="#CBD5E1" opacity="0.6"/>

    <rect x="460" y="370" width="214" height="120" rx="18" fill="#111827"/>
    <rect x="482" y="394" width="94" height="12" rx="6" fill="#C084FC"/>
    <rect x="482" y="422" width="160" height="12" rx="6" fill="#F8FAFC" opacity="0.9"/>
    <rect x="482" y="452" width="120" height="12" rx="6" fill="#F472B6" opacity="0.85"/>
    <rect x="482" y="472" width="146" height="8" rx="4" fill="#64748B" opacity="0.65"/>
  </g>

  <g transform="translate(782 121)">
    <rect x="0" y="10" width="290" height="126" rx="24" fill="#F8FAFC" opacity="0.98"/>
    <rect x="24" y="32" width="112" height="22" rx="11" fill="#7C3AED"/>
    <rect x="24" y="67" width="212" height="16" rx="8" fill="#CBD5E1"/>
    <rect x="24" y="93" width="176" height="16" rx="8" fill="#CBD5E1" opacity="0.72"/>
    <g transform="translate(230 36)">
      <rect x="0" y="0" width="36" height="44" rx="12" fill="#111827"/>
      <path d="M10 10H26" stroke="#F8FAFC" stroke-width="3" stroke-linecap="round"/>
      <path d="M10 18H26" stroke="#F8FAFC" stroke-width="3" stroke-linecap="round"/>
      <path d="M10 26H22" stroke="#F8FAFC" stroke-width="3" stroke-linecap="round"/>
      <path d="M10 34H18" stroke="#F472B6" stroke-width="3" stroke-linecap="round"/>
    </g>
  </g>

  <g transform="translate(820 292)">
    <rect x="0" y="0" width="232" height="178" rx="28" fill="#111827" opacity="0.96"/>
    <rect x="22" y="22" width="106" height="16" rx="8" fill="#F8FAFC" opacity="0.92"/>
    <circle cx="52" cy="86" r="18" fill="#8B5CF6"/>
    <circle cx="116" cy="86" r="18" fill="#EC4899"/>
    <circle cx="180" cy="86" r="18" fill="#60A5FA"/>
    <path d="M52 106V132" stroke="#A78BFA" stroke-width="4" stroke-linecap="round"/>
    <path d="M116 106V132" stroke="#F472B6" stroke-width="4" stroke-linecap="round"/>
    <path d="M180 106V132" stroke="#60A5FA" stroke-width="4" stroke-linecap="round"/>
    <path d="M52 132H116L180 132" stroke="url(#accent)" stroke-width="4" stroke-linecap="round"/>
    <rect x="22" y="146" width="188" height="10" rx="5" fill="#475569"/>
  </g>
</svg>
